<?xml version="1.0" standalone="yes"?>
<svg xmlns="http://www.w3.org/2000/svg" width="1080" height="1080">
<path style="stroke:none;" d="M0 0L0 537L1 537C8.67886 504.597 26.2836 471.793 38.9892 441C61.7243 385.9 83.463 330.341 105.6 275L135.6 200C140.404 187.992 144.08 172.58 153.093 163.015C162.076 153.482 176.214 149.608 188 144.579C211.333 134.623 234.708 124.769 258 114.719C316.904 89.3047 376.049 64.452 435 39.1504C464.11 26.6564 495.19 8.31787 526 1C514.068 -4.00684 492.991 0 480 0L373 0L0 0z"/>
<path style="fill:#FFFFFF; stroke:none;" d="M526 0.5177C515.758 2.70264 505.602 8.48132 496 12.5786C477.654 20.407 459.329 28.2836 441 36.1504C383.715 60.7369 326.337 85.1133 269 109.579L193 142C180.876 147.156 164.91 151.294 155.015 160.185C146.072 168.221 142.739 181.151 138.4 192L112.4 257C85.9811 323.044 59.2183 388.957 32.8002 455L10 512C6.24665 521.385 0.282435 531.743 0.0146605 542C-0.369334 556.709 6.00548 568.757 11.7191 582C19.0461 598.982 26.32 615.989 33.5787 633C62.3135 700.342 90.9716 767.718 119.85 835C128.854 855.98 137.674 877.036 146.719 898C151.335 908.699 154.76 920.957 164.004 928.671C170.734 934.288 179.97 936.788 188 940L233 958C282.359 977.741 331.642 997.656 381 1017.4C420.358 1033.14 459.642 1049.06 499 1064.8C515.783 1071.51 535.311 1083.47 554 1079.48C564.201 1077.31 574.426 1071.51 584 1067.42C602.346 1059.59 620.671 1051.72 639 1043.85C696.285 1019.26 753.663 994.887 811 970.421L887 938C899.124 932.844 915.09 928.706 924.985 919.815C933.928 911.779 937.261 898.849 941.6 888L967.6 823C994.019 756.956 1020.78 691.043 1047.2 625L1070 568C1073.75 558.615 1079.72 548.257 1079.99 538C1080.37 523.291 1073.99 511.243 1068.28 498C1060.96 481.021 1053.58 464.052 1046.42 447C1018.1 379.491 989.022 312.279 960.15 245C951.148 224.022 942.325 202.963 933.281 182C928.665 171.301 925.24 159.043 915.996 151.329C909.266 145.712 900.03 143.211 892 140L847 122C797.641 102.259 748.358 82.3442 699 62.6003C659.642 46.8564 620.358 30.9436 581 15.1998C564.217 8.48633 544.689 -3.46936 526 0.5177z"/>
<path style="stroke:none;" d="M543 0L543 1C575.403 8.6781 608.208 26.2836 639 38.9891C694.1 61.7243 749.659 83.463 805 105.6L880 135.6C892.066 140.427 907.372 144.032 916.985 153.093C926.518 162.079 930.392 176.213 935.421 188C945.377 211.331 955.232 234.71 965.281 258C992.411 320.88 1019.89 383.697 1046.01 447C1056.57 472.592 1072.62 499.058 1079 526L1080 526L1080 0L543 0M534 100.633C526.685 101.617 518.762 106.693 512 109.579L465 129.579C412.649 151.917 360.261 174.171 308 196.719C289.039 204.9 270.004 212.918 251 221C243.695 224.107 231.243 226.891 225.699 232.649C221.933 236.56 220.387 244.032 218.4 249C213.723 260.692 208.876 272.309 204.2 284C187.672 325.317 171.794 366.967 154.576 408C141.235 439.791 128.803 471.988 116 504C111.432 515.421 100.336 532.689 100.423 545C100.47 551.684 105.987 559.926 108.579 566L129.15 614C152.728 669.349 176.455 724.637 200 780L222.579 833C225.281 839.333 227.779 850.639 233.39 854.926C248.099 866.164 272.812 871.324 290 878.2C331.024 894.61 371.978 911.191 413 927.6L508 965.6C517.99 969.596 535.176 980.931 546 979.517C553.284 978.565 561.267 973.452 568 970.579L615 950.421L772 883.421C791.327 875.175 810.708 867.043 830 858.719C837.106 855.653 848.926 853.044 854.301 847.362C859.839 841.507 862.226 829.434 865.2 822C872.676 803.311 880.323 784.691 887.8 766C909.277 712.309 930.922 658.691 952.4 605L971.2 558C973.851 551.371 979.132 543.195 979.486 536C979.828 529.045 973.979 520.27 971.281 514C964.553 498.362 958.026 482.633 951.281 467C927.016 410.762 903.307 354.283 879.15 298L856.85 246C854.275 240.001 851.909 229.141 846.606 225.075C841.627 221.257 833.8 219.52 828 217.2L790 202C748.977 185.593 708.024 169.011 667 152.6C635.309 139.924 603.692 127.077 572 114.4C562.152 110.46 544.605 99.2068 534 100.633z"/>
<path style="fill:#FFFFFF; stroke:none;" d="M365 304L365 365C365 372.917 362.852 384.536 365.603 392C370.56 405.444 389.355 417.388 398.715 428C420.387 452.572 444.316 475.318 466.961 499C478.095 510.644 488.879 525.68 502 535L502 536L470.914 569L405.911 641L378.83 671L365.603 687L365 715L365 776L715 776L715 678L508 678L544.831 637L602 574L627.286 546L636.248 534L628 523L605 499L512 402L715 402L715 304L365 304z"/>
<path style="stroke:none;" d="M1079 543C1071.32 575.403 1053.72 608.207 1041.01 639C1018.28 694.1 996.537 749.659 974.4 805L944.4 880C939.596 892.008 935.92 907.419 926.907 916.985C917.924 926.518 903.786 930.392 892 935.421C868.668 945.377 845.293 955.231 822 965.281C763.097 990.695 703.95 1015.55 645 1040.85C615.901 1053.34 584.795 1071.69 554 1079L554 1080L1080 1080L1080 700L1080 590C1080 576.747 1084.11 555.169 1079 543M0 554L0 1080L537 1080L537 1079C502.924 1070.92 468.385 1052.37 436 1039.01C378.909 1015.45 321.342 992.934 264 970L195 942.4C182.463 937.385 168.258 933.778 159.329 922.999C152.285 914.497 148.876 902.072 144.579 892C135.761 871.336 127.012 850.646 118.15 830C91.2736 767.38 64.7259 704.619 37.8495 642C29.6966 623.005 21.5339 604.013 13.4213 585C9.15383 574.999 5.78595 563.151 0 554z"/>
</svg>
